<svg viewBox="0 0 20 20" fill="none" aria-hidden="true">
        <path d="M8.9 3.6h2.2l.4 1.6c.4.1.8.3 1.2.5l1.4-.8 1.6 1.6-.8 1.4c.2.4.4.8.5 1.2l1.6.4v2.2l-1.6.4c-.1.4-.3.8-.5 1.2l.8 1.4-1.6 1.6-1.4-.8c-.4.2-.8.4-1.2.5l-.4 1.6H8.9l-.4-1.6c-.4-.1-.8-.3-1.2-.5l-1.4.8-1.6-1.6.8-1.4c-.2-.4-.4-.8-.5-1.2L3 11.7V9.5l1.6-.4c.1-.4.3-.8.5-1.2l-.8-1.4 1.6-1.6 1.4.8c.4-.2.8-.4 1.2-.5l.4-1.6Z" stroke="currentColor" stroke-width="1.25" stroke-linejoin="round" />
        <path d="M10 12.4a2.4 2.4 0 1 0 0-4.8 2.4 2.4 0 0 0 0 4.8Z" stroke="currentColor" stroke-width="1.25" />
      </svg>
